<?xml version="1.0" encoding="UTF-8"?>
<svg width="50px" height="31px" viewBox="0 0 50 31" version="1.1" xmlns="http://www.w3.org/2000/svg" xmlns:xlink="http://www.w3.org/1999/xlink">
    <!-- Generator: Sketch 58 (84663) - https://sketch.com -->
    <title>Logo/Text</title>
    <desc>Created with Sketch.</desc>
    <defs>
        <polygon id="path-1" points="18.47072 20.9317433 18.47072 0.0221117171 0.039136 0.0221117171 0.039136 20.9317433 18.47072 20.9317433"></polygon>
        <linearGradient x1="19.8323654%" y1="36.285675%" x2="35.366268%" y2="42.6753545%" id="linearGradient-3">
            <stop stop-color="#8F2F41" offset="0%"></stop>
            <stop stop-color="#E84C69" offset="100%"></stop>
        </linearGradient>
    </defs>
    <g id="Page-1" stroke="none" stroke-width="1" fill="none" fill-rule="evenodd">
        <g id="LP---Web" transform="translate(-131.000000, -49.000000)">
            <g id="Hero-header-9">
                <g id="Header">
                    <g id="Logo/Text" transform="translate(130.000000, 49.000000)">
                        <g id="Group" transform="translate(1.000000, 0.000000)">
                            <path d="M21.550232,14.1856 C24.046232,14.1856 26.708632,15.5150845 27.582232,18.423332 L15.559752,18.423332 C16.433352,15.9720948 18.763032,14.1856 21.550232,14.1856 M27.869912,23.9609866 C27.008552,24.2987108 26.248552,24.7381438 25.779592,25.2029041 C24.640632,26.2171954 23.147672,26.8188191 21.550232,26.815783 C18.763032,26.815783 16.433352,25.0292082 15.559752,22.5364247 L29.911832,22.5364247 C31.076712,22.5364247 31.991912,21.622484 31.991912,20.5006515 C31.991912,13.7285897 26.583832,10.0725072 21.550232,10.0725072 C15.767832,10.0725072 11.108552,14.7257031 11.108552,20.5006515 C11.108552,26.2341335 15.770152,30.9300742 21.552632,30.9300742 C25.974072,30.9307933 29.999432,28.1079557 31.439672,23.8504093 C30.932392,23.3292418 29.431992,23.3485768 27.869912,23.9609866" id="Fill-1" fill="#333233"></path>
                            <g id="Group-5" transform="translate(30.720000, 9.997101)">
                                <mask id="mask-2" fill="white">
                                    <use xlink:href="#path-1"></use>
                                </mask>
                                <g id="Clip-4"></g>
                                <path d="M9.295936,20.9317433 L9.254336,20.9317433 C8.422336,20.9317433 7.631936,20.3916402 7.299136,19.5607124 L3.273216,8.83870722 L3.271536,8.83926649 L0.039136,0.249230412 C0.547856,-0.174143299 1.887136,0.00346752577 3.242496,0.706240722 C4.211376,1.20855258 5.028736,1.82415825 5.279056,2.43217371 C6.276176,4.85368918 9.254336,13.0794753 9.254336,13.0794753 L9.255456,13.0794753 C9.255456,13.0794753 12.233696,4.85368918 13.230816,2.43217371 C13.481136,1.82415825 14.298416,1.20855258 15.267456,0.706240722 C16.622736,0.00346752577 17.961936,-0.174143299 18.470736,0.249230412 L15.238256,8.83926649 L15.236736,8.83870722 L11.210736,19.5607124 C10.877856,20.3916402 10.087536,20.9317433 9.255456,20.9317433 L9.213936,20.9317433" id="Fill-3" fill="#333233" mask="url(#mask-2)"></path>
                            </g>
                            <path d="M24.23984,3.99484536e-05 C24.97128,3.99484536e-05 25.63752,0.262261598 26.13808,0.692186856 L31.37736,7.08945232 C30.98,7.64345747 29.54664,7.85310696 27.93872,7.55285438 C26.78928,7.33825129 25.82816,6.91487758 25.32168,6.45171521 L20.71856,0.692186856 C20.21808,0.262261598 19.55184,3.99484536e-05 18.8204,3.99484536e-05 L24.23984,3.99484536e-05 Z" id="Fill-6" fill="url(#linearGradient-3)"></path>
                            <path d="M18.917928,3.99484536e-05 C18.186488,3.99484536e-05 17.520248,0.262261598 17.019768,0.692186856 L11.780408,7.08945232 C12.177768,7.64345747 13.611128,7.85310696 15.219048,7.55285438 C16.368488,7.33825129 17.329608,6.91487758 17.836088,6.45171521 C17.836088,6.45171521 21.151048,2.02534665 22.439208,0.692186856 C22.895048,0.220395619 23.605928,3.99484536e-05 24.337448,3.99484536e-05 L18.917928,3.99484536e-05 Z" id="Fill-8" fill="#E76A46"></path>
                            <path d="M12.479144,10.1808874 C12.705784,10.8537791 12.011944,12.1260575 10.781304,13.2076219 C9.901544,13.9807843 8.942184,14.3926528 8.257384,14.5666683 C8.257224,14.5667482 8.256744,14.566908 8.256744,14.566908 C5.840344,15.4544827 4.118424,17.7726116 4.118424,20.4954183 L4.118424,28.8463229 C4.118424,29.9680755 3.203304,30.9236425 2.080104,30.9236425 C0.915224,30.9236425 2.4e-05,29.9680755 2.4e-05,28.8463229 L2.4e-05,20.4954183 C2.4e-05,14.7204698 4.709304,10.0256477 10.450104,10.0256477 C11.747304,10.0256477 12.476024,10.1831245 12.476024,10.1831245" id="Fill-10" fill="#333233"></path>
                            <polygon id="Fill-9" fill="#231F20" points="46.2496586 28.6290305 46.2496586 28.8363956 45.6626028 28.8363956 45.6626028 30.3741142 45.4230702 30.3741142 45.4230702 28.8363956 44.83544 28.8363956 44.83544 28.6290305"></polygon>
                            <path d="M46.4611595,28.6290305 L46.8000665,28.6290305 L47.3021084,30.103563 L47.7995549,28.6290305 L48.1361642,28.6290305 L48.1361642,30.3741142 L47.9104177,30.3741142 L47.9104177,29.3441816 C47.9104177,29.3085677 47.9109921,29.2494026 47.9127153,29.1672607 C47.9138642,29.0851188 47.915013,28.9966584 47.915013,28.9024537 L47.4169921,30.3741142 L47.1832037,30.3741142 L46.6805874,28.9024537 L46.6805874,28.9553002 C46.6805874,28.998956 46.6811619,29.0638653 46.684034,29.151177 C46.6863316,29.2384886 46.6874805,29.3028235 46.6874805,29.3441816 L46.6874805,30.3741142 L46.4611595,30.3741142 L46.4611595,28.6290305 Z" id="Fill-11" fill="#231F20"></path>
                        </g>
                    </g>
                </g>
            </g>
        </g>
    </g>
</svg>